{
    "asset" : {
        "generator" : "Khronos glTF Blender I/O v0.9.35",
        "version" : "2.0"
    },
    "scene" : 0,
    "scenes" : [
        {
            "name" : "Scene",
            "nodes" : [
                0
            ]
        }
    ],
    "nodes" : [
        {
            "mesh" : 0,
            "name" : "TerrainNode",
            "rotation" : [
                0.7071068286895752,
                0,
                0,
                0.7071067094802856
            ],
            "scale" : [
                0.0002909136819653213,
                0.00029091371106915176,
                0.00029091371106915176
            ]
        }
    ],
    "materials" : [
        {
            "doubleSided" : true,
            "name" : "TerrainNodeMaterial.003",
            "pbrMetallicRoughness" : {
                "baseColorFactor" : [
                    1,
                    1,
                    1,
                    0.800000011920929
                ],
                "baseColorTexture" : {
                    "index" : 0,
                    "texCoord" : 0
                },
                "metallicFactor" : 0.15000000596046448,
                "roughnessFactor" : 0.8500000238418579
            }
        }
    ],
    "meshes" : [
        {
            "name" : "TerrainNodeMesh.003",
            "primitives" : [
                {
                    "attributes" : {
                        "POSITION" : 0,
                        "NORMAL" : 1,
                        "TEXCOORD_0" : 2
                    },
                    "indices" : 3,
                    "material" : 0
                }
            ]
        }
    ],
    "textures" : [
        {
            "source" : 0
        }
    ],
    "images" : [
        {
            "mimeType" : "image/png",
            "name" : "Image_0",
            "uri" : "Image_0.png"
        }
    ],
    "accessors" : [
        {
            "bufferView" : 0,
            "componentType" : 5126,
            "count" : 59127,
            "max" : [
                12523.4423828125,
                12533.4111328125,
                0
            ],
            "min" : [
                -12523.4423828125,
                -12533.4111328125,
                -1504
            ],
            "type" : "VEC3"
        },
        {
            "bufferView" : 1,
            "componentType" : 5126,
            "count" : 59127,
            "type" : "VEC3"
        },
        {
            "bufferView" : 2,
            "componentType" : 5126,
            "count" : 59127,
            "type" : "VEC2"
        },
        {
            "bufferView" : 3,
            "componentType" : 5123,
            "count" : 320760,
            "type" : "SCALAR"
        }
    ],
    "bufferViews" : [
        {
            "buffer" : 0,
            "byteLength" : 709524,
            "byteOffset" : 0
        },
        {
            "buffer" : 0,
            "byteLength" : 709524,
            "byteOffset" : 709524
        },
        {
            "buffer" : 0,
            "byteLength" : 473016,
            "byteOffset" : 1419048
        },
        {
            "buffer" : 0,
            "byteLength" : 641520,
            "byteOffset" : 1892064
        }
    ],
    "buffers" : [
        {
            "byteLength" : 2533584,
            "uri" : "chaiten.bin"
        }
    ]
}
