{
    "asset" : {
        "generator" : "Khronos glTF Blender I/O v0.9.35",
        "version" : "2.0"
    },
    "scene" : 0,
    "scenes" : [
        {
            "name" : "Scene",
            "nodes" : [
                0
            ]
        }
    ],
    "nodes" : [
        {
            "mesh" : 0,
            "name" : "TerrainNode",
            "rotation" : [
                0.7071068286895752,
                0,
                0,
                0.7071067094802856
            ],
            "scale" : [
                0.0001326733618043363,
                0.00013267317262943834,
                0.00013267317262943834
            ],
            "translation" : [
                0,
                0.36343348026275635,
                0
            ]
        }
    ],
    "materials" : [
        {
            "doubleSided" : true,
            "name" : "TerrainNodeMaterial.008",
            "pbrMetallicRoughness" : {
                "baseColorFactor" : [
                    1,
                    1,
                    1,
                    0.800000011920929
                ],
                "baseColorTexture" : {
                    "index" : 0,
                    "texCoord" : 0
                },
                "metallicFactor" : 0.15000000596046448,
                "roughnessFactor" : 0.8500000238418579
            }
        }
    ],
    "meshes" : [
        {
            "name" : "TerrainNodeMesh.008",
            "primitives" : [
                {
                    "attributes" : {
                        "POSITION" : 0,
                        "NORMAL" : 1,
                        "TEXCOORD_0" : 2
                    },
                    "indices" : 3,
                    "material" : 0
                },
                {
                    "attributes" : {
                        "POSITION" : 4,
                        "NORMAL" : 5,
                        "TEXCOORD_0" : 6
                    },
                    "indices" : 7,
                    "material" : 0
                },
                {
                    "attributes" : {
                        "POSITION" : 8,
                        "NORMAL" : 9,
                        "TEXCOORD_0" : 10
                    },
                    "indices" : 11,
                    "material" : 0
                },
                {
                    "attributes" : {
                        "POSITION" : 12,
                        "NORMAL" : 13,
                        "TEXCOORD_0" : 14
                    },
                    "indices" : 15,
                    "material" : 0
                },
                {
                    "attributes" : {
                        "POSITION" : 16,
                        "NORMAL" : 17,
                        "TEXCOORD_0" : 18
                    },
                    "indices" : 19,
                    "material" : 0
                },
                {
                    "attributes" : {
                        "POSITION" : 20,
                        "NORMAL" : 21,
                        "TEXCOORD_0" : 22
                    },
                    "indices" : 23,
                    "material" : 0
                },
                {
                    "attributes" : {
                        "POSITION" : 24,
                        "NORMAL" : 25,
                        "TEXCOORD_0" : 26
                    },
                    "indices" : 27,
                    "material" : 0
                },
                {
                    "attributes" : {
                        "POSITION" : 28,
                        "NORMAL" : 29,
                        "TEXCOORD_0" : 30
                    },
                    "indices" : 31,
                    "material" : 0
                },
                {
                    "attributes" : {
                        "POSITION" : 32,
                        "NORMAL" : 33,
                        "TEXCOORD_0" : 34
                    },
                    "indices" : 35,
                    "material" : 0
                },
                {
                    "attributes" : {
                        "POSITION" : 36,
                        "NORMAL" : 37,
                        "TEXCOORD_0" : 38
                    },
                    "indices" : 39,
                    "material" : 0
                }
            ]
        }
    ],
    "textures" : [
        {
            "source" : 0
        }
    ],
    "images" : [
        {
            "mimeType" : "image/png",
            "name" : "Image_0",
            "uri" : "Image_0.png"
        }
    ],
    "accessors" : [
        {
            "bufferView" : 0,
            "componentType" : 5126,
            "count" : 65535,
            "max" : [
                41837.57421875,
                -26329.70703125,
                -94
            ],
            "min" : [
                -41837.57421875,
                -34353.26171875,
                -3220
            ],
            "type" : "VEC3"
        },
        {
            "bufferView" : 1,
            "componentType" : 5126,
            "count" : 65535,
            "type" : "VEC3"
        },
        {
            "bufferView" : 2,
            "componentType" : 5126,
            "count" : 65535,
            "type" : "VEC2"
        },
        {
            "bufferView" : 3,
            "componentType" : 5123,
            "count" : 358446,
            "type" : "SCALAR"
        },
        {
            "bufferView" : 4,
            "componentType" : 5126,
            "count" : 65535,
            "max" : [
                41837.57421875,
                -18179.861328125,
                -98
            ],
            "min" : [
                -41837.57421875,
                -26449.509765625,
                -3172
            ],
            "type" : "VEC3"
        },
        {
            "bufferView" : 5,
            "componentType" : 5126,
            "count" : 65535,
            "type" : "VEC3"
        },
        {
            "bufferView" : 6,
            "componentType" : 5126,
            "count" : 65535,
            "type" : "VEC2"
        },
        {
            "bufferView" : 7,
            "componentType" : 5123,
            "count" : 365115,
            "type" : "SCALAR"
        },
        {
            "bufferView" : 8,
            "componentType" : 5126,
            "count" : 65535,
            "max" : [
                41837.57421875,
                -9543.4140625,
                -210
            ],
            "min" : [
                -41837.57421875,
                -18179.861328125,
                -3104
            ],
            "type" : "VEC3"
        },
        {
            "bufferView" : 9,
            "componentType" : 5126,
            "count" : 65535,
            "type" : "VEC3"
        },
        {
            "bufferView" : 10,
            "componentType" : 5126,
            "count" : 65535,
            "type" : "VEC2"
        },
        {
            "bufferView" : 11,
            "componentType" : 5123,
            "count" : 383382,
            "type" : "SCALAR"
        },
        {
            "bufferView" : 12,
            "componentType" : 5126,
            "count" : 65535,
            "max" : [
                41837.57421875,
                -899.5430908203125,
                -424
            ],
            "min" : [
                -41837.57421875,
                -9663.416015625,
                -5366
            ],
            "type" : "VEC3"
        },
        {
            "bufferView" : 13,
            "componentType" : 5126,
            "count" : 65535,
            "type" : "VEC3"
        },
        {
            "bufferView" : 14,
            "componentType" : 5126,
            "count" : 65535,
            "type" : "VEC2"
        },
        {
            "bufferView" : 15,
            "componentType" : 5123,
            "count" : 385065,
            "type" : "SCALAR"
        },
        {
            "bufferView" : 16,
            "componentType" : 5126,
            "count" : 65535,
            "max" : [
                41837.57421875,
                7751.775390625,
                -76
            ],
            "min" : [
                -41837.57421875,
                -899.5430908203125,
                -4252
            ],
            "type" : "VEC3"
        },
        {
            "bufferView" : 17,
            "componentType" : 5126,
            "count" : 65535,
            "type" : "VEC3"
        },
        {
            "bufferView" : 18,
            "componentType" : 5126,
            "count" : 65535,
            "type" : "VEC2"
        },
        {
            "bufferView" : 19,
            "componentType" : 5123,
            "count" : 381927,
            "type" : "SCALAR"
        },
        {
            "bufferView" : 20,
            "componentType" : 5126,
            "count" : 65535,
            "max" : [
                41837.57421875,
                15688.7119140625,
                -76
            ],
            "min" : [
                -41837.57421875,
                7631.56689453125,
                -4394
            ],
            "type" : "VEC3"
        },
        {
            "bufferView" : 21,
            "componentType" : 5126,
            "count" : 65535,
            "type" : "VEC3"
        },
        {
            "bufferView" : 22,
            "componentType" : 5126,
            "count" : 65535,
            "type" : "VEC2"
        },
        {
            "bufferView" : 23,
            "componentType" : 5123,
            "count" : 355458,
            "type" : "SCALAR"
        },
        {
            "bufferView" : 24,
            "componentType" : 5126,
            "count" : 65535,
            "max" : [
                41837.57421875,
                23993.146484375,
                0
            ],
            "min" : [
                -41837.57421875,
                15568.408203125,
                -3616
            ],
            "type" : "VEC3"
        },
        {
            "bufferView" : 25,
            "componentType" : 5126,
            "count" : 65535,
            "type" : "VEC3"
        },
        {
            "bufferView" : 26,
            "componentType" : 5126,
            "count" : 65535,
            "type" : "VEC2"
        },
        {
            "bufferView" : 27,
            "componentType" : 5123,
            "count" : 367965,
            "type" : "SCALAR"
        },
        {
            "bufferView" : 28,
            "componentType" : 5126,
            "count" : 65535,
            "max" : [
                41837.57421875,
                32666,
                -102
            ],
            "min" : [
                -41837.57421875,
                23993.146484375,
                -7126
            ],
            "type" : "VEC3"
        },
        {
            "bufferView" : 29,
            "componentType" : 5126,
            "count" : 65535,
            "type" : "VEC3"
        },
        {
            "bufferView" : 30,
            "componentType" : 5126,
            "count" : 65535,
            "type" : "VEC2"
        },
        {
            "bufferView" : 31,
            "componentType" : 5123,
            "count" : 383280,
            "type" : "SCALAR"
        },
        {
            "bufferView" : 32,
            "componentType" : 5126,
            "count" : 12959,
            "max" : [
                41837.57421875,
                34353.26171875,
                -250
            ],
            "min" : [
                -41837.57421875,
                32545.4921875,
                -4118
            ],
            "type" : "VEC3"
        },
        {
            "bufferView" : 33,
            "componentType" : 5126,
            "count" : 12959,
            "type" : "VEC3"
        },
        {
            "bufferView" : 34,
            "componentType" : 5126,
            "count" : 12959,
            "type" : "VEC2"
        },
        {
            "bufferView" : 35,
            "componentType" : 5123,
            "count" : 71970,
            "type" : "SCALAR"
        },
        {
            "bufferView" : 36,
            "componentType" : 5126,
            "count" : 14635,
            "max" : [
                41837.57421875,
                32786.51171875,
                -76
            ],
            "min" : [
                -41837.57421875,
                -26449.509765625,
                -4302
            ],
            "type" : "VEC3"
        },
        {
            "bufferView" : 37,
            "componentType" : 5126,
            "count" : 14635,
            "type" : "VEC3"
        },
        {
            "bufferView" : 38,
            "componentType" : 5126,
            "count" : 14635,
            "type" : "VEC2"
        },
        {
            "bufferView" : 39,
            "componentType" : 5123,
            "count" : 43056,
            "type" : "SCALAR"
        }
    ],
    "bufferViews" : [
        {
            "buffer" : 0,
            "byteLength" : 786420,
            "byteOffset" : 0
        },
        {
            "buffer" : 0,
            "byteLength" : 786420,
            "byteOffset" : 786420
        },
        {
            "buffer" : 0,
            "byteLength" : 524280,
            "byteOffset" : 1572840
        },
        {
            "buffer" : 0,
            "byteLength" : 716892,
            "byteOffset" : 2097120
        },
        {
            "buffer" : 0,
            "byteLength" : 786420,
            "byteOffset" : 2814012
        },
        {
            "buffer" : 0,
            "byteLength" : 786420,
            "byteOffset" : 3600432
        },
        {
            "buffer" : 0,
            "byteLength" : 524280,
            "byteOffset" : 4386852
        },
        {
            "buffer" : 0,
            "byteLength" : 730230,
            "byteOffset" : 4911132
        },
        {
            "buffer" : 0,
            "byteLength" : 786420,
            "byteOffset" : 5641364
        },
        {
            "buffer" : 0,
            "byteLength" : 786420,
            "byteOffset" : 6427784
        },
        {
            "buffer" : 0,
            "byteLength" : 524280,
            "byteOffset" : 7214204
        },
        {
            "buffer" : 0,
            "byteLength" : 766764,
            "byteOffset" : 7738484
        },
        {
            "buffer" : 0,
            "byteLength" : 786420,
            "byteOffset" : 8505248
        },
        {
            "buffer" : 0,
            "byteLength" : 786420,
            "byteOffset" : 9291668
        },
        {
            "buffer" : 0,
            "byteLength" : 524280,
            "byteOffset" : 10078088
        },
        {
            "buffer" : 0,
            "byteLength" : 770130,
            "byteOffset" : 10602368
        },
        {
            "buffer" : 0,
            "byteLength" : 786420,
            "byteOffset" : 11372500
        },
        {
            "buffer" : 0,
            "byteLength" : 786420,
            "byteOffset" : 12158920
        },
        {
            "buffer" : 0,
            "byteLength" : 524280,
            "byteOffset" : 12945340
        },
        {
            "buffer" : 0,
            "byteLength" : 763854,
            "byteOffset" : 13469620
        },
        {
            "buffer" : 0,
            "byteLength" : 786420,
            "byteOffset" : 14233476
        },
        {
            "buffer" : 0,
            "byteLength" : 786420,
            "byteOffset" : 15019896
        },
        {
            "buffer" : 0,
            "byteLength" : 524280,
            "byteOffset" : 15806316
        },
        {
            "buffer" : 0,
            "byteLength" : 710916,
            "byteOffset" : 16330596
        },
        {
            "buffer" : 0,
            "byteLength" : 786420,
            "byteOffset" : 17041512
        },
        {
            "buffer" : 0,
            "byteLength" : 786420,
            "byteOffset" : 17827932
        },
        {
            "buffer" : 0,
            "byteLength" : 524280,
            "byteOffset" : 18614352
        },
        {
            "buffer" : 0,
            "byteLength" : 735930,
            "byteOffset" : 19138632
        },
        {
            "buffer" : 0,
            "byteLength" : 786420,
            "byteOffset" : 19874564
        },
        {
            "buffer" : 0,
            "byteLength" : 786420,
            "byteOffset" : 20660984
        },
        {
            "buffer" : 0,
            "byteLength" : 524280,
            "byteOffset" : 21447404
        },
        {
            "buffer" : 0,
            "byteLength" : 766560,
            "byteOffset" : 21971684
        },
        {
            "buffer" : 0,
            "byteLength" : 155508,
            "byteOffset" : 22738244
        },
        {
            "buffer" : 0,
            "byteLength" : 155508,
            "byteOffset" : 22893752
        },
        {
            "buffer" : 0,
            "byteLength" : 103672,
            "byteOffset" : 23049260
        },
        {
            "buffer" : 0,
            "byteLength" : 143940,
            "byteOffset" : 23152932
        },
        {
            "buffer" : 0,
            "byteLength" : 175620,
            "byteOffset" : 23296872
        },
        {
            "buffer" : 0,
            "byteLength" : 175620,
            "byteOffset" : 23472492
        },
        {
            "buffer" : 0,
            "byteLength" : 117080,
            "byteOffset" : 23648112
        },
        {
            "buffer" : 0,
            "byteLength" : 86112,
            "byteOffset" : 23765192
        }
    ],
    "buffers" : [
        {
            "byteLength" : 23851304,
            "uri" : "villarica.bin"
        }
    ]
}
