{
    "asset" : {
        "generator" : "Khronos glTF Blender I/O v0.9.35",
        "version" : "2.0"
    },
    "scene" : 0,
    "scenes" : [
        {
            "name" : "Scene",
            "nodes" : [
                0
            ]
        }
    ],
    "nodes" : [
        {
            "mesh" : 0,
            "name" : "TerrainNode",
            "rotation" : [
                0.7071068286895752,
                0,
                0,
                0.7071067094802856
            ],
            "scale" : [
                0.0004166488070040941,
                0.00041664886521175504,
                0.00041664886521175504
            ]
        }
    ],
    "materials" : [
        {
            "doubleSided" : true,
            "name" : "TerrainNodeMaterial.019",
            "pbrMetallicRoughness" : {
                "baseColorFactor" : [
                    1,
                    1,
                    1,
                    0.800000011920929
                ],
                "baseColorTexture" : {
                    "index" : 0,
                    "texCoord" : 0
                },
                "metallicFactor" : 0.15000000596046448,
                "roughnessFactor" : 0.8500000238418579
            }
        }
    ],
    "meshes" : [
        {
            "name" : "TerrainNodeMesh.019",
            "primitives" : [
                {
                    "attributes" : {
                        "POSITION" : 0,
                        "NORMAL" : 1,
                        "TEXCOORD_0" : 2
                    },
                    "indices" : 3,
                    "material" : 0
                }
            ]
        }
    ],
    "textures" : [
        {
            "source" : 0
        }
    ],
    "images" : [
        {
            "mimeType" : "image/png",
            "name" : "Image_0",
            "uri" : "Image_0.png"
        }
    ],
    "accessors" : [
        {
            "bufferView" : 0,
            "componentType" : 5126,
            "count" : 38652,
            "max" : [
                11039.1826171875,
                9547.416015625,
                0
            ],
            "min" : [
                -11039.1826171875,
                -9547.416015625,
                -2194
            ],
            "type" : "VEC3"
        },
        {
            "bufferView" : 1,
            "componentType" : 5126,
            "count" : 38652,
            "type" : "VEC3"
        },
        {
            "bufferView" : 2,
            "componentType" : 5126,
            "count" : 38652,
            "type" : "VEC2"
        },
        {
            "bufferView" : 3,
            "componentType" : 5123,
            "count" : 227052,
            "type" : "SCALAR"
        }
    ],
    "bufferViews" : [
        {
            "buffer" : 0,
            "byteLength" : 463824,
            "byteOffset" : 0
        },
        {
            "buffer" : 0,
            "byteLength" : 463824,
            "byteOffset" : 463824
        },
        {
            "buffer" : 0,
            "byteLength" : 309216,
            "byteOffset" : 927648
        },
        {
            "buffer" : 0,
            "byteLength" : 454104,
            "byteOffset" : 1236864
        }
    ],
    "buffers" : [
        {
            "byteLength" : 1690968,
            "uri" : "villarica.bin"
        }
    ]
}
